<?xml version="1.0" encoding="utf-8" standalone="no"?>
<!DOCTYPE svg PUBLIC "-//W3C//DTD SVG 1.1//EN"
  "http://www.w3.org/Graphics/SVG/1.1/DTD/svg11.dtd">
<svg xmlns:xlink="http://www.w3.org/1999/xlink" width="1382.4pt" height="777.6pt" viewBox="0 0 1382.4 777.6" xmlns="http://www.w3.org/2000/svg" version="1.1">
 <metadata>
  <rdf:RDF xmlns:dc="http://purl.org/dc/elements/1.1/" xmlns:cc="http://creativecommons.org/ns#" xmlns:rdf="http://www.w3.org/1999/02/22-rdf-syntax-ns#">
   <cc:Work>
    <dc:type rdf:resource="http://purl.org/dc/dcmitype/StillImage"/>
    <dc:date>2025-01-28T20:15:09.688865</dc:date>
    <dc:format>image/svg+xml</dc:format>
    <dc:creator>
     <cc:Agent>
      <dc:title>Matplotlib v3.10.0, https://matplotlib.org/</dc:title>
     </cc:Agent>
    </dc:creator>
   </cc:Work>
  </rdf:RDF>
 </metadata>
 <defs>
  <style type="text/css">*{stroke-linejoin: round; stroke-linecap: butt}</style>
 </defs>
 <g id="figure_1">
  <g id="patch_1">
   <path d="M 0 777.6 
L 1382.4 777.6 
L 1382.4 0 
L 0 0 
z
" style="fill: #ffffff"/>
  </g>
  <g id="axes_1">
   <g id="patch_2">
    <path d="M 172.8 692.064 
L 1244.16 692.064 
L 1244.16 93.312 
L 172.8 93.312 
z
" style="fill: #ffffff"/>
   </g>
   <g id="matplotlib.axis_1">
    <g id="xtick_1">
     <g id="line2d_1">
      <defs>
       <path id="m84457fa23a" d="M 0 0 
L 0 3.5 
" style="stroke: #000000; stroke-width: 0.8"/>
      </defs>
      <g>
       <use xlink:href="#m84457fa23a" x="221.498182" y="692.064" style="stroke: #000000; stroke-width: 0.8"/>
      </g>
     </g>
     <g id="text_1">
      <!-- 0 -->
      <g transform="translate(218.316932 706.662438) scale(0.1 -0.1)">
       <defs>
        <path id="DejaVuSans-30" d="M 2034 4250 
Q 1547 4250 1301 3770 
Q 1056 3291 1056 2328 
Q 1056 1369 1301 889 
Q 1547 409 2034 409 
Q 2525 409 2770 889 
Q 3016 1369 3016 2328 
Q 3016 3291 2770 3770 
Q 2525 4250 2034 4250 
z
M 2034 4750 
Q 2819 4750 3233 4129 
Q 3647 3509 3647 2328 
Q 3647 1150 3233 529 
Q 2819 -91 2034 -91 
Q 1250 -91 836 529 
Q 422 1150 422 2328 
Q 422 3509 836 4129 
Q 1250 4750 2034 4750 
z
" transform="scale(0.015625)"/>
       </defs>
       <use xlink:href="#DejaVuSans-30"/>
      </g>
     </g>
    </g>
    <g id="xtick_2">
     <g id="line2d_2">
      <g>
       <use xlink:href="#m84457fa23a" x="365.789091" y="692.064" style="stroke: #000000; stroke-width: 0.8"/>
      </g>
     </g>
     <g id="text_2">
      <!-- 20 -->
      <g transform="translate(359.426591 706.662438) scale(0.1 -0.1)">
       <defs>
        <path id="DejaVuSans-32" d="M 1228 531 
L 3431 531 
L 3431 0 
L 469 0 
L 469 531 
Q 828 903 1448 1529 
Q 2069 2156 2228 2338 
Q 2531 2678 2651 2914 
Q 2772 3150 2772 3378 
Q 2772 3750 2511 3984 
Q 2250 4219 1831 4219 
Q 1534 4219 1204 4116 
Q 875 4013 500 3803 
L 500 4441 
Q 881 4594 1212 4672 
Q 1544 4750 1819 4750 
Q 2544 4750 2975 4387 
Q 3406 4025 3406 3419 
Q 3406 3131 3298 2873 
Q 3191 2616 2906 2266 
Q 2828 2175 2409 1742 
Q 1991 1309 1228 531 
z
" transform="scale(0.015625)"/>
       </defs>
       <use xlink:href="#DejaVuSans-32"/>
       <use xlink:href="#DejaVuSans-30" transform="translate(63.623047 0)"/>
      </g>
     </g>
    </g>
    <g id="xtick_3">
     <g id="line2d_3">
      <g>
       <use xlink:href="#m84457fa23a" x="510.08" y="692.064" style="stroke: #000000; stroke-width: 0.8"/>
      </g>
     </g>
     <g id="text_3">
      <!-- 40 -->
      <g transform="translate(503.7175 706.662438) scale(0.1 -0.1)">
       <defs>
        <path id="DejaVuSans-34" d="M 2419 4116 
L 825 1625 
L 2419 1625 
L 2419 4116 
z
M 2253 4666 
L 3047 4666 
L 3047 1625 
L 3713 1625 
L 3713 1100 
L 3047 1100 
L 3047 0 
L 2419 0 
L 2419 1100 
L 313 1100 
L 313 1709 
L 2253 4666 
z
" transform="scale(0.015625)"/>
       </defs>
       <use xlink:href="#DejaVuSans-34"/>
       <use xlink:href="#DejaVuSans-30" transform="translate(63.623047 0)"/>
      </g>
     </g>
    </g>
    <g id="xtick_4">
     <g id="line2d_4">
      <g>
       <use xlink:href="#m84457fa23a" x="654.370909" y="692.064" style="stroke: #000000; stroke-width: 0.8"/>
      </g>
     </g>
     <g id="text_4">
      <!-- 60 -->
      <g transform="translate(648.008409 706.662438) scale(0.1 -0.1)">
       <defs>
        <path id="DejaVuSans-36" d="M 2113 2584 
Q 1688 2584 1439 2293 
Q 1191 2003 1191 1497 
Q 1191 994 1439 701 
Q 1688 409 2113 409 
Q 2538 409 2786 701 
Q 3034 994 3034 1497 
Q 3034 2003 2786 2293 
Q 2538 2584 2113 2584 
z
M 3366 4563 
L 3366 3988 
Q 3128 4100 2886 4159 
Q 2644 4219 2406 4219 
Q 1781 4219 1451 3797 
Q 1122 3375 1075 2522 
Q 1259 2794 1537 2939 
Q 1816 3084 2150 3084 
Q 2853 3084 3261 2657 
Q 3669 2231 3669 1497 
Q 3669 778 3244 343 
Q 2819 -91 2113 -91 
Q 1303 -91 875 529 
Q 447 1150 447 2328 
Q 447 3434 972 4092 
Q 1497 4750 2381 4750 
Q 2619 4750 2861 4703 
Q 3103 4656 3366 4563 
z
" transform="scale(0.015625)"/>
       </defs>
       <use xlink:href="#DejaVuSans-36"/>
       <use xlink:href="#DejaVuSans-30" transform="translate(63.623047 0)"/>
      </g>
     </g>
    </g>
    <g id="xtick_5">
     <g id="line2d_5">
      <g>
       <use xlink:href="#m84457fa23a" x="798.661818" y="692.064" style="stroke: #000000; stroke-width: 0.8"/>
      </g>
     </g>
     <g id="text_5">
      <!-- 80 -->
      <g transform="translate(792.299318 706.662438) scale(0.1 -0.1)">
       <defs>
        <path id="DejaVuSans-38" d="M 2034 2216 
Q 1584 2216 1326 1975 
Q 1069 1734 1069 1313 
Q 1069 891 1326 650 
Q 1584 409 2034 409 
Q 2484 409 2743 651 
Q 3003 894 3003 1313 
Q 3003 1734 2745 1975 
Q 2488 2216 2034 2216 
z
M 1403 2484 
Q 997 2584 770 2862 
Q 544 3141 544 3541 
Q 544 4100 942 4425 
Q 1341 4750 2034 4750 
Q 2731 4750 3128 4425 
Q 3525 4100 3525 3541 
Q 3525 3141 3298 2862 
Q 3072 2584 2669 2484 
Q 3125 2378 3379 2068 
Q 3634 1759 3634 1313 
Q 3634 634 3220 271 
Q 2806 -91 2034 -91 
Q 1263 -91 848 271 
Q 434 634 434 1313 
Q 434 1759 690 2068 
Q 947 2378 1403 2484 
z
M 1172 3481 
Q 1172 3119 1398 2916 
Q 1625 2713 2034 2713 
Q 2441 2713 2670 2916 
Q 2900 3119 2900 3481 
Q 2900 3844 2670 4047 
Q 2441 4250 2034 4250 
Q 1625 4250 1398 4047 
Q 1172 3844 1172 3481 
z
" transform="scale(0.015625)"/>
       </defs>
       <use xlink:href="#DejaVuSans-38"/>
       <use xlink:href="#DejaVuSans-30" transform="translate(63.623047 0)"/>
      </g>
     </g>
    </g>
    <g id="xtick_6">
     <g id="line2d_6">
      <g>
       <use xlink:href="#m84457fa23a" x="942.952727" y="692.064" style="stroke: #000000; stroke-width: 0.8"/>
      </g>
     </g>
     <g id="text_6">
      <!-- 100 -->
      <g transform="translate(933.408977 706.662438) scale(0.1 -0.1)">
       <defs>
        <path id="DejaVuSans-31" d="M 794 531 
L 1825 531 
L 1825 4091 
L 703 3866 
L 703 4441 
L 1819 4666 
L 2450 4666 
L 2450 531 
L 3481 531 
L 3481 0 
L 794 0 
L 794 531 
z
" transform="scale(0.015625)"/>
       </defs>
       <use xlink:href="#DejaVuSans-31"/>
       <use xlink:href="#DejaVuSans-30" transform="translate(63.623047 0)"/>
       <use xlink:href="#DejaVuSans-30" transform="translate(127.246094 0)"/>
      </g>
     </g>
    </g>
    <g id="xtick_7">
     <g id="line2d_7">
      <g>
       <use xlink:href="#m84457fa23a" x="1087.243636" y="692.064" style="stroke: #000000; stroke-width: 0.8"/>
      </g>
     </g>
     <g id="text_7">
      <!-- 120 -->
      <g transform="translate(1077.699886 706.662438) scale(0.1 -0.1)">
       <use xlink:href="#DejaVuSans-31"/>
       <use xlink:href="#DejaVuSans-32" transform="translate(63.623047 0)"/>
       <use xlink:href="#DejaVuSans-30" transform="translate(127.246094 0)"/>
      </g>
     </g>
    </g>
    <g id="xtick_8">
     <g id="line2d_8">
      <g>
       <use xlink:href="#m84457fa23a" x="1231.534545" y="692.064" style="stroke: #000000; stroke-width: 0.8"/>
      </g>
     </g>
     <g id="text_8">
      <!-- 140 -->
      <g transform="translate(1221.990795 706.662438) scale(0.1 -0.1)">
       <use xlink:href="#DejaVuSans-31"/>
       <use xlink:href="#DejaVuSans-34" transform="translate(63.623047 0)"/>
       <use xlink:href="#DejaVuSans-30" transform="translate(127.246094 0)"/>
      </g>
     </g>
    </g>
   </g>
   <g id="matplotlib.axis_2">
    <g id="ytick_1">
     <g id="line2d_9">
      <defs>
       <path id="mb73a57f7ad" d="M 0 0 
L -3.5 0 
" style="stroke: #000000; stroke-width: 0.8"/>
      </defs>
      <g>
       <use xlink:href="#mb73a57f7ad" x="172.8" y="665.12571" style="stroke: #000000; stroke-width: 0.8"/>
      </g>
     </g>
     <g id="text_9">
      <!-- 0 -->
      <g transform="translate(159.4375 668.924929) scale(0.1 -0.1)">
       <use xlink:href="#DejaVuSans-30"/>
      </g>
     </g>
    </g>
    <g id="ytick_2">
     <g id="line2d_10">
      <g>
       <use xlink:href="#mb73a57f7ad" x="172.8" y="559.622993" style="stroke: #000000; stroke-width: 0.8"/>
      </g>
     </g>
     <g id="text_10">
      <!-- 1 -->
      <g transform="translate(159.4375 563.422212) scale(0.1 -0.1)">
       <use xlink:href="#DejaVuSans-31"/>
      </g>
     </g>
    </g>
    <g id="ytick_3">
     <g id="line2d_11">
      <g>
       <use xlink:href="#mb73a57f7ad" x="172.8" y="454.120275" style="stroke: #000000; stroke-width: 0.8"/>
      </g>
     </g>
     <g id="text_11">
      <!-- 2 -->
      <g transform="translate(159.4375 457.919494) scale(0.1 -0.1)">
       <use xlink:href="#DejaVuSans-32"/>
      </g>
     </g>
    </g>
    <g id="ytick_4">
     <g id="line2d_12">
      <g>
       <use xlink:href="#mb73a57f7ad" x="172.8" y="348.617558" style="stroke: #000000; stroke-width: 0.8"/>
      </g>
     </g>
     <g id="text_12">
      <!-- 3 -->
      <g transform="translate(159.4375 352.416776) scale(0.1 -0.1)">
       <defs>
        <path id="DejaVuSans-33" d="M 2597 2516 
Q 3050 2419 3304 2112 
Q 3559 1806 3559 1356 
Q 3559 666 3084 287 
Q 2609 -91 1734 -91 
Q 1441 -91 1130 -33 
Q 819 25 488 141 
L 488 750 
Q 750 597 1062 519 
Q 1375 441 1716 441 
Q 2309 441 2620 675 
Q 2931 909 2931 1356 
Q 2931 1769 2642 2001 
Q 2353 2234 1838 2234 
L 1294 2234 
L 1294 2753 
L 1863 2753 
Q 2328 2753 2575 2939 
Q 2822 3125 2822 3475 
Q 2822 3834 2567 4026 
Q 2313 4219 1838 4219 
Q 1578 4219 1281 4162 
Q 984 4106 628 3988 
L 628 4550 
Q 988 4650 1302 4700 
Q 1616 4750 1894 4750 
Q 2613 4750 3031 4423 
Q 3450 4097 3450 3541 
Q 3450 3153 3228 2886 
Q 3006 2619 2597 2516 
z
" transform="scale(0.015625)"/>
       </defs>
       <use xlink:href="#DejaVuSans-33"/>
      </g>
     </g>
    </g>
    <g id="ytick_5">
     <g id="line2d_13">
      <g>
       <use xlink:href="#mb73a57f7ad" x="172.8" y="243.11484" style="stroke: #000000; stroke-width: 0.8"/>
      </g>
     </g>
     <g id="text_13">
      <!-- 4 -->
      <g transform="translate(159.4375 246.914059) scale(0.1 -0.1)">
       <use xlink:href="#DejaVuSans-34"/>
      </g>
     </g>
    </g>
    <g id="ytick_6">
     <g id="line2d_14">
      <g>
       <use xlink:href="#mb73a57f7ad" x="172.8" y="137.612122" style="stroke: #000000; stroke-width: 0.8"/>
      </g>
     </g>
     <g id="text_14">
      <!-- 5 -->
      <g transform="translate(159.4375 141.411341) scale(0.1 -0.1)">
       <defs>
        <path id="DejaVuSans-35" d="M 691 4666 
L 3169 4666 
L 3169 4134 
L 1269 4134 
L 1269 2991 
Q 1406 3038 1543 3061 
Q 1681 3084 1819 3084 
Q 2600 3084 3056 2656 
Q 3513 2228 3513 1497 
Q 3513 744 3044 326 
Q 2575 -91 1722 -91 
Q 1428 -91 1123 -41 
Q 819 9 494 109 
L 494 744 
Q 775 591 1075 516 
Q 1375 441 1709 441 
Q 2250 441 2565 725 
Q 2881 1009 2881 1497 
Q 2881 1984 2565 2268 
Q 2250 2553 1709 2553 
Q 1456 2553 1204 2497 
Q 953 2441 691 2322 
L 691 4666 
z
" transform="scale(0.015625)"/>
       </defs>
       <use xlink:href="#DejaVuSans-35"/>
      </g>
     </g>
    </g>
   </g>
   <g id="line2d_15">
    <path d="M 221.498182 656.502124 
L 228.712727 486.968413 
L 235.927273 555.928378 
L 243.141818 511.309123 
L 250.356364 644.947937 
L 257.570909 613.775155 
L 264.785455 603.202028 
L 272 579.151123 
L 279.214545 663.908835 
L 286.429091 633.740612 
L 293.643636 641.898925 
L 300.858182 660.365046 
L 308.072727 657.363072 
L 315.287273 634.314576 
L 322.501818 596.871425 
L 329.716364 570.058916 
L 336.930909 662.997754 
L 344.145455 635.017415 
L 351.36 641.347919 
L 358.574545 610.740849 
L 365.789091 662.800001 
L 373.003636 594.755853 
L 380.218182 576.593103 
L 387.432727 643.939384 
L 394.647273 660.328337 
L 401.861818 621.820368 
L 409.076364 657.60335 
L 416.290909 626.233242 
L 423.505455 658.399188 
L 430.72 638.025707 
L 437.934545 497.381065 
L 445.149091 632.474735 
L 452.363636 640.5772 
L 459.578182 564.775059 
L 466.792727 120.528 
L 474.007273 563.776425 
L 481.221818 660.038994 
L 488.436364 587.701301 
L 495.650909 506.896614 
L 502.865455 594.688192 
L 510.08 661.809374 
L 517.294545 566.398564 
L 524.509091 595.093253 
L 531.723636 653.653699 
L 538.938182 664.710411 
L 546.152727 639.286907 
L 553.367273 628.008406 
L 560.581818 635.948791 
L 567.796364 662.279591 
L 575.010909 660.688078 
L 582.225455 595.020288 
L 589.44 601.002511 
L 596.654545 661.756241 
L 603.869091 648.833047 
L 611.083636 632.487111 
L 618.298182 620.84348 
L 625.512727 657.44094 
L 632.727273 583.40311 
L 639.941818 617.850283 
L 647.156364 311.633956 
L 654.370909 659.787425 
L 661.585455 628.755011 
L 668.8 571.375938 
L 676.014545 627.73749 
L 683.229091 664.667411 
L 690.443636 607.361157 
L 697.658182 652.615187 
L 704.872727 540.776337 
L 712.087273 659.500709 
L 719.301818 653.403237 
L 726.516364 661.555423 
L 733.730909 625.381929 
L 740.945455 625.432404 
L 748.16 662.850591 
L 755.374545 632.304665 
L 762.589091 599.208122 
L 769.803636 604.527965 
L 777.018182 638.977261 
L 784.232727 624.166574 
L 791.447273 649.740058 
L 798.661818 620.454237 
L 805.876364 627.740093 
L 813.090909 545.300846 
L 820.305455 360.830547 
L 827.52 664.848 
L 834.734545 641.148951 
L 841.949091 649.289231 
L 849.163636 660.168942 
L 856.378182 660.627971 
L 863.592727 583.713013 
L 870.807273 617.16172 
L 878.021818 551.17328 
L 885.236364 606.737622 
L 892.450909 578.909044 
L 899.665455 613.696752 
L 906.88 612.723184 
L 914.094545 658.370995 
L 921.309091 639.965879 
L 928.523636 573.089518 
L 935.738182 617.695892 
L 942.952727 562.431646 
L 950.167273 596.556314 
L 957.381818 570.518431 
L 964.596364 660.104412 
L 971.810909 573.167371 
L 979.025455 541.429104 
L 986.24 546.039687 
L 993.454545 659.196401 
L 1000.669091 622.039565 
L 1007.883636 547.795891 
L 1015.098182 577.023108 
L 1022.312727 516.368183 
L 1029.527273 626.903529 
L 1036.741818 608.686075 
L 1043.956364 602.304069 
L 1051.170909 527.284919 
L 1058.385455 664.307535 
L 1065.6 637.674389 
L 1072.814545 563.322785 
L 1080.029091 592.971968 
L 1087.243636 583.524221 
L 1094.458182 645.21904 
L 1101.672727 647.73477 
L 1108.887273 662.09954 
L 1116.101818 599.20015 
L 1123.316364 625.317127 
L 1130.530909 615.642228 
L 1137.745455 635.110671 
L 1144.96 619.969586 
L 1152.174545 608.88066 
L 1159.389091 620.146259 
L 1166.603636 607.089965 
L 1173.818182 576.890514 
L 1181.032727 661.545477 
L 1188.247273 623.650153 
L 1188.247273 623.650153 
" clip-path="url(#pe5880cc015)" style="fill: none; stroke: #1f77b4; stroke-width: 1.5; stroke-linecap: square"/>
   </g>
   <g id="LineCollection_1">
    <path d="M 221.498182 607.92452 
L 1195.461818 607.92452 
" clip-path="url(#pe5880cc015)" style="fill: none; stroke: #0000ff; stroke-width: 1.5"/>
   </g>
   <g id="LineCollection_2">
    <path d="M 221.498182 540.18083 
L 1195.461818 540.18083 
" clip-path="url(#pe5880cc015)" style="fill: none; stroke-dasharray: 5.55,2.4; stroke-dashoffset: 0; stroke: #000000; stroke-width: 1.5"/>
   </g>
   <g id="patch_3">
    <path d="M 172.8 692.064 
L 172.8 93.312 
" style="fill: none; stroke: #000000; stroke-width: 0.8; stroke-linejoin: miter; stroke-linecap: square"/>
   </g>
   <g id="patch_4">
    <path d="M 1244.16 692.064 
L 1244.16 93.312 
" style="fill: none; stroke: #000000; stroke-width: 0.8; stroke-linejoin: miter; stroke-linecap: square"/>
   </g>
   <g id="patch_5">
    <path d="M 172.8 692.064 
L 1244.16 692.064 
" style="fill: none; stroke: #000000; stroke-width: 0.8; stroke-linejoin: miter; stroke-linecap: square"/>
   </g>
   <g id="patch_6">
    <path d="M 172.8 93.312 
L 1244.16 93.312 
" style="fill: none; stroke: #000000; stroke-width: 0.8; stroke-linejoin: miter; stroke-linecap: square"/>
   </g>
   <g id="text_15">
    <!-- Diferenta in modul intre test si test_pred -->
    <g transform="translate(586.506562 87.312) scale(0.12 -0.12)">
     <defs>
      <path id="DejaVuSans-44" d="M 1259 4147 
L 1259 519 
L 2022 519 
Q 2988 519 3436 956 
Q 3884 1394 3884 2338 
Q 3884 3275 3436 3711 
Q 2988 4147 2022 4147 
L 1259 4147 
z
M 628 4666 
L 1925 4666 
Q 3281 4666 3915 4102 
Q 4550 3538 4550 2338 
Q 4550 1131 3912 565 
Q 3275 0 1925 0 
L 628 0 
L 628 4666 
z
" transform="scale(0.015625)"/>
      <path id="DejaVuSans-69" d="M 603 3500 
L 1178 3500 
L 1178 0 
L 603 0 
L 603 3500 
z
M 603 4863 
L 1178 4863 
L 1178 4134 
L 603 4134 
L 603 4863 
z
" transform="scale(0.015625)"/>
      <path id="DejaVuSans-66" d="M 2375 4863 
L 2375 4384 
L 1825 4384 
Q 1516 4384 1395 4259 
Q 1275 4134 1275 3809 
L 1275 3500 
L 2222 3500 
L 2222 3053 
L 1275 3053 
L 1275 0 
L 697 0 
L 697 3053 
L 147 3053 
L 147 3500 
L 697 3500 
L 697 3744 
Q 697 4328 969 4595 
Q 1241 4863 1831 4863 
L 2375 4863 
z
" transform="scale(0.015625)"/>
      <path id="DejaVuSans-65" d="M 3597 1894 
L 3597 1613 
L 953 1613 
Q 991 1019 1311 708 
Q 1631 397 2203 397 
Q 2534 397 2845 478 
Q 3156 559 3463 722 
L 3463 178 
Q 3153 47 2828 -22 
Q 2503 -91 2169 -91 
Q 1331 -91 842 396 
Q 353 884 353 1716 
Q 353 2575 817 3079 
Q 1281 3584 2069 3584 
Q 2775 3584 3186 3129 
Q 3597 2675 3597 1894 
z
M 3022 2063 
Q 3016 2534 2758 2815 
Q 2500 3097 2075 3097 
Q 1594 3097 1305 2825 
Q 1016 2553 972 2059 
L 3022 2063 
z
" transform="scale(0.015625)"/>
      <path id="DejaVuSans-72" d="M 2631 2963 
Q 2534 3019 2420 3045 
Q 2306 3072 2169 3072 
Q 1681 3072 1420 2755 
Q 1159 2438 1159 1844 
L 1159 0 
L 581 0 
L 581 3500 
L 1159 3500 
L 1159 2956 
Q 1341 3275 1631 3429 
Q 1922 3584 2338 3584 
Q 2397 3584 2469 3576 
Q 2541 3569 2628 3553 
L 2631 2963 
z
" transform="scale(0.015625)"/>
      <path id="DejaVuSans-6e" d="M 3513 2113 
L 3513 0 
L 2938 0 
L 2938 2094 
Q 2938 2591 2744 2837 
Q 2550 3084 2163 3084 
Q 1697 3084 1428 2787 
Q 1159 2491 1159 1978 
L 1159 0 
L 581 0 
L 581 3500 
L 1159 3500 
L 1159 2956 
Q 1366 3272 1645 3428 
Q 1925 3584 2291 3584 
Q 2894 3584 3203 3211 
Q 3513 2838 3513 2113 
z
" transform="scale(0.015625)"/>
      <path id="DejaVuSans-74" d="M 1172 4494 
L 1172 3500 
L 2356 3500 
L 2356 3053 
L 1172 3053 
L 1172 1153 
Q 1172 725 1289 603 
Q 1406 481 1766 481 
L 2356 481 
L 2356 0 
L 1766 0 
Q 1100 0 847 248 
Q 594 497 594 1153 
L 594 3053 
L 172 3053 
L 172 3500 
L 594 3500 
L 594 4494 
L 1172 4494 
z
" transform="scale(0.015625)"/>
      <path id="DejaVuSans-61" d="M 2194 1759 
Q 1497 1759 1228 1600 
Q 959 1441 959 1056 
Q 959 750 1161 570 
Q 1363 391 1709 391 
Q 2188 391 2477 730 
Q 2766 1069 2766 1631 
L 2766 1759 
L 2194 1759 
z
M 3341 1997 
L 3341 0 
L 2766 0 
L 2766 531 
Q 2569 213 2275 61 
Q 1981 -91 1556 -91 
Q 1019 -91 701 211 
Q 384 513 384 1019 
Q 384 1609 779 1909 
Q 1175 2209 1959 2209 
L 2766 2209 
L 2766 2266 
Q 2766 2663 2505 2880 
Q 2244 3097 1772 3097 
Q 1472 3097 1187 3025 
Q 903 2953 641 2809 
L 641 3341 
Q 956 3463 1253 3523 
Q 1550 3584 1831 3584 
Q 2591 3584 2966 3190 
Q 3341 2797 3341 1997 
z
" transform="scale(0.015625)"/>
      <path id="DejaVuSans-20" transform="scale(0.015625)"/>
      <path id="DejaVuSans-6d" d="M 3328 2828 
Q 3544 3216 3844 3400 
Q 4144 3584 4550 3584 
Q 5097 3584 5394 3201 
Q 5691 2819 5691 2113 
L 5691 0 
L 5113 0 
L 5113 2094 
Q 5113 2597 4934 2840 
Q 4756 3084 4391 3084 
Q 3944 3084 3684 2787 
Q 3425 2491 3425 1978 
L 3425 0 
L 2847 0 
L 2847 2094 
Q 2847 2600 2669 2842 
Q 2491 3084 2119 3084 
Q 1678 3084 1418 2786 
Q 1159 2488 1159 1978 
L 1159 0 
L 581 0 
L 581 3500 
L 1159 3500 
L 1159 2956 
Q 1356 3278 1631 3431 
Q 1906 3584 2284 3584 
Q 2666 3584 2933 3390 
Q 3200 3197 3328 2828 
z
" transform="scale(0.015625)"/>
      <path id="DejaVuSans-6f" d="M 1959 3097 
Q 1497 3097 1228 2736 
Q 959 2375 959 1747 
Q 959 1119 1226 758 
Q 1494 397 1959 397 
Q 2419 397 2687 759 
Q 2956 1122 2956 1747 
Q 2956 2369 2687 2733 
Q 2419 3097 1959 3097 
z
M 1959 3584 
Q 2709 3584 3137 3096 
Q 3566 2609 3566 1747 
Q 3566 888 3137 398 
Q 2709 -91 1959 -91 
Q 1206 -91 779 398 
Q 353 888 353 1747 
Q 353 2609 779 3096 
Q 1206 3584 1959 3584 
z
" transform="scale(0.015625)"/>
      <path id="DejaVuSans-64" d="M 2906 2969 
L 2906 4863 
L 3481 4863 
L 3481 0 
L 2906 0 
L 2906 525 
Q 2725 213 2448 61 
Q 2172 -91 1784 -91 
Q 1150 -91 751 415 
Q 353 922 353 1747 
Q 353 2572 751 3078 
Q 1150 3584 1784 3584 
Q 2172 3584 2448 3432 
Q 2725 3281 2906 2969 
z
M 947 1747 
Q 947 1113 1208 752 
Q 1469 391 1925 391 
Q 2381 391 2643 752 
Q 2906 1113 2906 1747 
Q 2906 2381 2643 2742 
Q 2381 3103 1925 3103 
Q 1469 3103 1208 2742 
Q 947 2381 947 1747 
z
" transform="scale(0.015625)"/>
      <path id="DejaVuSans-75" d="M 544 1381 
L 544 3500 
L 1119 3500 
L 1119 1403 
Q 1119 906 1312 657 
Q 1506 409 1894 409 
Q 2359 409 2629 706 
Q 2900 1003 2900 1516 
L 2900 3500 
L 3475 3500 
L 3475 0 
L 2900 0 
L 2900 538 
Q 2691 219 2414 64 
Q 2138 -91 1772 -91 
Q 1169 -91 856 284 
Q 544 659 544 1381 
z
M 1991 3584 
L 1991 3584 
z
" transform="scale(0.015625)"/>
      <path id="DejaVuSans-6c" d="M 603 4863 
L 1178 4863 
L 1178 0 
L 603 0 
L 603 4863 
z
" transform="scale(0.015625)"/>
      <path id="DejaVuSans-73" d="M 2834 3397 
L 2834 2853 
Q 2591 2978 2328 3040 
Q 2066 3103 1784 3103 
Q 1356 3103 1142 2972 
Q 928 2841 928 2578 
Q 928 2378 1081 2264 
Q 1234 2150 1697 2047 
L 1894 2003 
Q 2506 1872 2764 1633 
Q 3022 1394 3022 966 
Q 3022 478 2636 193 
Q 2250 -91 1575 -91 
Q 1294 -91 989 -36 
Q 684 19 347 128 
L 347 722 
Q 666 556 975 473 
Q 1284 391 1588 391 
Q 1994 391 2212 530 
Q 2431 669 2431 922 
Q 2431 1156 2273 1281 
Q 2116 1406 1581 1522 
L 1381 1569 
Q 847 1681 609 1914 
Q 372 2147 372 2553 
Q 372 3047 722 3315 
Q 1072 3584 1716 3584 
Q 2034 3584 2315 3537 
Q 2597 3491 2834 3397 
z
" transform="scale(0.015625)"/>
      <path id="DejaVuSans-5f" d="M 3263 -1063 
L 3263 -1509 
L -63 -1509 
L -63 -1063 
L 3263 -1063 
z
" transform="scale(0.015625)"/>
      <path id="DejaVuSans-70" d="M 1159 525 
L 1159 -1331 
L 581 -1331 
L 581 3500 
L 1159 3500 
L 1159 2969 
Q 1341 3281 1617 3432 
Q 1894 3584 2278 3584 
Q 2916 3584 3314 3078 
Q 3713 2572 3713 1747 
Q 3713 922 3314 415 
Q 2916 -91 2278 -91 
Q 1894 -91 1617 61 
Q 1341 213 1159 525 
z
M 3116 1747 
Q 3116 2381 2855 2742 
Q 2594 3103 2138 3103 
Q 1681 3103 1420 2742 
Q 1159 2381 1159 1747 
Q 1159 1113 1420 752 
Q 1681 391 2138 391 
Q 2594 391 2855 752 
Q 3116 1113 3116 1747 
z
" transform="scale(0.015625)"/>
     </defs>
     <use xlink:href="#DejaVuSans-44"/>
     <use xlink:href="#DejaVuSans-69" transform="translate(77.001953 0)"/>
     <use xlink:href="#DejaVuSans-66" transform="translate(104.785156 0)"/>
     <use xlink:href="#DejaVuSans-65" transform="translate(139.990234 0)"/>
     <use xlink:href="#DejaVuSans-72" transform="translate(201.513672 0)"/>
     <use xlink:href="#DejaVuSans-65" transform="translate(240.376953 0)"/>
     <use xlink:href="#DejaVuSans-6e" transform="translate(301.900391 0)"/>
     <use xlink:href="#DejaVuSans-74" transform="translate(365.279297 0)"/>
     <use xlink:href="#DejaVuSans-61" transform="translate(404.488281 0)"/>
     <use xlink:href="#DejaVuSans-20" transform="translate(465.767578 0)"/>
     <use xlink:href="#DejaVuSans-69" transform="translate(497.554688 0)"/>
     <use xlink:href="#DejaVuSans-6e" transform="translate(525.337891 0)"/>
     <use xlink:href="#DejaVuSans-20" transform="translate(588.716797 0)"/>
     <use xlink:href="#DejaVuSans-6d" transform="translate(620.503906 0)"/>
     <use xlink:href="#DejaVuSans-6f" transform="translate(717.916016 0)"/>
     <use xlink:href="#DejaVuSans-64" transform="translate(779.097656 0)"/>
     <use xlink:href="#DejaVuSans-75" transform="translate(842.574219 0)"/>
     <use xlink:href="#DejaVuSans-6c" transform="translate(905.953125 0)"/>
     <use xlink:href="#DejaVuSans-20" transform="translate(933.736328 0)"/>
     <use xlink:href="#DejaVuSans-69" transform="translate(965.523438 0)"/>
     <use xlink:href="#DejaVuSans-6e" transform="translate(993.306641 0)"/>
     <use xlink:href="#DejaVuSans-74" transform="translate(1056.685547 0)"/>
     <use xlink:href="#DejaVuSans-72" transform="translate(1095.894531 0)"/>
     <use xlink:href="#DejaVuSans-65" transform="translate(1134.757812 0)"/>
     <use xlink:href="#DejaVuSans-20" transform="translate(1196.28125 0)"/>
     <use xlink:href="#DejaVuSans-74" transform="translate(1228.068359 0)"/>
     <use xlink:href="#DejaVuSans-65" transform="translate(1267.277344 0)"/>
     <use xlink:href="#DejaVuSans-73" transform="translate(1328.800781 0)"/>
     <use xlink:href="#DejaVuSans-74" transform="translate(1380.900391 0)"/>
     <use xlink:href="#DejaVuSans-20" transform="translate(1420.109375 0)"/>
     <use xlink:href="#DejaVuSans-73" transform="translate(1451.896484 0)"/>
     <use xlink:href="#DejaVuSans-69" transform="translate(1503.996094 0)"/>
     <use xlink:href="#DejaVuSans-20" transform="translate(1531.779297 0)"/>
     <use xlink:href="#DejaVuSans-74" transform="translate(1563.566406 0)"/>
     <use xlink:href="#DejaVuSans-65" transform="translate(1602.775391 0)"/>
     <use xlink:href="#DejaVuSans-73" transform="translate(1664.298828 0)"/>
     <use xlink:href="#DejaVuSans-74" transform="translate(1716.398438 0)"/>
     <use xlink:href="#DejaVuSans-5f" transform="translate(1755.607422 0)"/>
     <use xlink:href="#DejaVuSans-70" transform="translate(1805.607422 0)"/>
     <use xlink:href="#DejaVuSans-72" transform="translate(1869.083984 0)"/>
     <use xlink:href="#DejaVuSans-65" transform="translate(1907.947266 0)"/>
     <use xlink:href="#DejaVuSans-64" transform="translate(1969.470703 0)"/>
    </g>
   </g>
   <g id="legend_1">
    <g id="patch_7">
     <path d="M 1072.152187 145.346375 
L 1237.16 145.346375 
Q 1239.16 145.346375 1239.16 143.346375 
L 1239.16 100.312 
Q 1239.16 98.312 1237.16 98.312 
L 1072.152187 98.312 
Q 1070.152187 98.312 1070.152187 100.312 
L 1070.152187 143.346375 
Q 1070.152187 145.346375 1072.152187 145.346375 
z
" style="fill: #ffffff; opacity: 0.8; stroke: #cccccc; stroke-linejoin: miter"/>
    </g>
    <g id="line2d_16">
     <path d="M 1074.152187 106.410437 
L 1084.152187 106.410437 
L 1094.152187 106.410437 
" style="fill: none; stroke: #1f77b4; stroke-width: 1.5; stroke-linecap: square"/>
    </g>
    <g id="text_16">
     <!-- Diferenta in modul -->
     <g transform="translate(1102.152187 109.910437) scale(0.1 -0.1)">
      <use xlink:href="#DejaVuSans-44"/>
      <use xlink:href="#DejaVuSans-69" transform="translate(77.001953 0)"/>
      <use xlink:href="#DejaVuSans-66" transform="translate(104.785156 0)"/>
      <use xlink:href="#DejaVuSans-65" transform="translate(139.990234 0)"/>
      <use xlink:href="#DejaVuSans-72" transform="translate(201.513672 0)"/>
      <use xlink:href="#DejaVuSans-65" transform="translate(240.376953 0)"/>
      <use xlink:href="#DejaVuSans-6e" transform="translate(301.900391 0)"/>
      <use xlink:href="#DejaVuSans-74" transform="translate(365.279297 0)"/>
      <use xlink:href="#DejaVuSans-61" transform="translate(404.488281 0)"/>
      <use xlink:href="#DejaVuSans-20" transform="translate(465.767578 0)"/>
      <use xlink:href="#DejaVuSans-69" transform="translate(497.554688 0)"/>
      <use xlink:href="#DejaVuSans-6e" transform="translate(525.337891 0)"/>
      <use xlink:href="#DejaVuSans-20" transform="translate(588.716797 0)"/>
      <use xlink:href="#DejaVuSans-6d" transform="translate(620.503906 0)"/>
      <use xlink:href="#DejaVuSans-6f" transform="translate(717.916016 0)"/>
      <use xlink:href="#DejaVuSans-64" transform="translate(779.097656 0)"/>
      <use xlink:href="#DejaVuSans-75" transform="translate(842.574219 0)"/>
      <use xlink:href="#DejaVuSans-6c" transform="translate(905.953125 0)"/>
     </g>
    </g>
    <g id="line2d_17">
     <path d="M 1074.152187 121.088562 
L 1094.152187 121.088562 
" style="fill: none; stroke: #0000ff; stroke-width: 1.5"/>
    </g>
    <g id="text_17">
     <!-- Media diferentelor -->
     <g transform="translate(1102.152187 124.588562) scale(0.1 -0.1)">
      <defs>
       <path id="DejaVuSans-4d" d="M 628 4666 
L 1569 4666 
L 2759 1491 
L 3956 4666 
L 4897 4666 
L 4897 0 
L 4281 0 
L 4281 4097 
L 3078 897 
L 2444 897 
L 1241 4097 
L 1241 0 
L 628 0 
L 628 4666 
z
" transform="scale(0.015625)"/>
      </defs>
      <use xlink:href="#DejaVuSans-4d"/>
      <use xlink:href="#DejaVuSans-65" transform="translate(86.279297 0)"/>
      <use xlink:href="#DejaVuSans-64" transform="translate(147.802734 0)"/>
      <use xlink:href="#DejaVuSans-69" transform="translate(211.279297 0)"/>
      <use xlink:href="#DejaVuSans-61" transform="translate(239.0625 0)"/>
      <use xlink:href="#DejaVuSans-20" transform="translate(300.341797 0)"/>
      <use xlink:href="#DejaVuSans-64" transform="translate(332.128906 0)"/>
      <use xlink:href="#DejaVuSans-69" transform="translate(395.605469 0)"/>
      <use xlink:href="#DejaVuSans-66" transform="translate(423.388672 0)"/>
      <use xlink:href="#DejaVuSans-65" transform="translate(458.59375 0)"/>
      <use xlink:href="#DejaVuSans-72" transform="translate(520.117188 0)"/>
      <use xlink:href="#DejaVuSans-65" transform="translate(558.980469 0)"/>
      <use xlink:href="#DejaVuSans-6e" transform="translate(620.503906 0)"/>
      <use xlink:href="#DejaVuSans-74" transform="translate(683.882812 0)"/>
      <use xlink:href="#DejaVuSans-65" transform="translate(723.091797 0)"/>
      <use xlink:href="#DejaVuSans-6c" transform="translate(784.615234 0)"/>
      <use xlink:href="#DejaVuSans-6f" transform="translate(812.398438 0)"/>
      <use xlink:href="#DejaVuSans-72" transform="translate(873.580078 0)"/>
     </g>
    </g>
    <g id="line2d_18">
     <path d="M 1074.152187 135.766687 
L 1094.152187 135.766687 
" style="fill: none; stroke-dasharray: 5.55,2.4; stroke-dashoffset: 0; stroke: #000000; stroke-width: 1.5"/>
    </g>
    <g id="text_18">
     <!-- Threshold (medie + 1*std) -->
     <g transform="translate(1102.152187 139.266687) scale(0.1 -0.1)">
      <defs>
       <path id="DejaVuSans-54" d="M -19 4666 
L 3928 4666 
L 3928 4134 
L 2272 4134 
L 2272 0 
L 1638 0 
L 1638 4134 
L -19 4134 
L -19 4666 
z
" transform="scale(0.015625)"/>
       <path id="DejaVuSans-68" d="M 3513 2113 
L 3513 0 
L 2938 0 
L 2938 2094 
Q 2938 2591 2744 2837 
Q 2550 3084 2163 3084 
Q 1697 3084 1428 2787 
Q 1159 2491 1159 1978 
L 1159 0 
L 581 0 
L 581 4863 
L 1159 4863 
L 1159 2956 
Q 1366 3272 1645 3428 
Q 1925 3584 2291 3584 
Q 2894 3584 3203 3211 
Q 3513 2838 3513 2113 
z
" transform="scale(0.015625)"/>
       <path id="DejaVuSans-28" d="M 1984 4856 
Q 1566 4138 1362 3434 
Q 1159 2731 1159 2009 
Q 1159 1288 1364 580 
Q 1569 -128 1984 -844 
L 1484 -844 
Q 1016 -109 783 600 
Q 550 1309 550 2009 
Q 550 2706 781 3412 
Q 1013 4119 1484 4856 
L 1984 4856 
z
" transform="scale(0.015625)"/>
       <path id="DejaVuSans-2b" d="M 2944 4013 
L 2944 2272 
L 4684 2272 
L 4684 1741 
L 2944 1741 
L 2944 0 
L 2419 0 
L 2419 1741 
L 678 1741 
L 678 2272 
L 2419 2272 
L 2419 4013 
L 2944 4013 
z
" transform="scale(0.015625)"/>
       <path id="DejaVuSans-2a" d="M 3009 3897 
L 1888 3291 
L 3009 2681 
L 2828 2375 
L 1778 3009 
L 1778 1831 
L 1422 1831 
L 1422 3009 
L 372 2375 
L 191 2681 
L 1313 3291 
L 191 3897 
L 372 4206 
L 1422 3572 
L 1422 4750 
L 1778 4750 
L 1778 3572 
L 2828 4206 
L 3009 3897 
z
" transform="scale(0.015625)"/>
       <path id="DejaVuSans-29" d="M 513 4856 
L 1013 4856 
Q 1481 4119 1714 3412 
Q 1947 2706 1947 2009 
Q 1947 1309 1714 600 
Q 1481 -109 1013 -844 
L 513 -844 
Q 928 -128 1133 580 
Q 1338 1288 1338 2009 
Q 1338 2731 1133 3434 
Q 928 4138 513 4856 
z
" transform="scale(0.015625)"/>
      </defs>
      <use xlink:href="#DejaVuSans-54"/>
      <use xlink:href="#DejaVuSans-68" transform="translate(61.083984 0)"/>
      <use xlink:href="#DejaVuSans-72" transform="translate(124.462891 0)"/>
      <use xlink:href="#DejaVuSans-65" transform="translate(163.326172 0)"/>
      <use xlink:href="#DejaVuSans-73" transform="translate(224.849609 0)"/>
      <use xlink:href="#DejaVuSans-68" transform="translate(276.949219 0)"/>
      <use xlink:href="#DejaVuSans-6f" transform="translate(340.328125 0)"/>
      <use xlink:href="#DejaVuSans-6c" transform="translate(401.509766 0)"/>
      <use xlink:href="#DejaVuSans-64" transform="translate(429.292969 0)"/>
      <use xlink:href="#DejaVuSans-20" transform="translate(492.769531 0)"/>
      <use xlink:href="#DejaVuSans-28" transform="translate(524.556641 0)"/>
      <use xlink:href="#DejaVuSans-6d" transform="translate(563.570312 0)"/>
      <use xlink:href="#DejaVuSans-65" transform="translate(660.982422 0)"/>
      <use xlink:href="#DejaVuSans-64" transform="translate(722.505859 0)"/>
      <use xlink:href="#DejaVuSans-69" transform="translate(785.982422 0)"/>
      <use xlink:href="#DejaVuSans-65" transform="translate(813.765625 0)"/>
      <use xlink:href="#DejaVuSans-20" transform="translate(875.289062 0)"/>
      <use xlink:href="#DejaVuSans-2b" transform="translate(907.076172 0)"/>
      <use xlink:href="#DejaVuSans-20" transform="translate(990.865234 0)"/>
      <use xlink:href="#DejaVuSans-31" transform="translate(1022.652344 0)"/>
      <use xlink:href="#DejaVuSans-2a" transform="translate(1086.275391 0)"/>
      <use xlink:href="#DejaVuSans-73" transform="translate(1136.275391 0)"/>
      <use xlink:href="#DejaVuSans-74" transform="translate(1188.375 0)"/>
      <use xlink:href="#DejaVuSans-64" transform="translate(1227.583984 0)"/>
      <use xlink:href="#DejaVuSans-29" transform="translate(1291.060547 0)"/>
     </g>
    </g>
   </g>
  </g>
 </g>
 <defs>
  <clipPath id="pe5880cc015">
   <rect x="172.8" y="93.312" width="1071.36" height="598.752"/>
  </clipPath>
 </defs>
</svg>
